<svg xmlns="http://www.w3.org/2000/svg" viewBox="0 0 50.87 23.11"><defs><style>.cls-1{fill:#8ed146;}.cls-2{fill:#2d2c2c;}.cls-3{fill:#fff;}.cls-4{fill:#ce3c46;}</style></defs><g id="Capa_2" data-name="Capa 2"><g id="Capa_1-2" data-name="Capa 1"><path class="cls-1" d="M11,16.69v4.52h-.9v-.7a2.19,2.19,0,0,1-.61.54,1.83,1.83,0,0,1-.94.25,1.89,1.89,0,0,1-1-.3,2.11,2.11,0,0,1-.75-.84,2.67,2.67,0,0,1-.27-1.22,2.53,2.53,0,0,1,.28-1.22,2,2,0,0,1,.79-.83,2.15,2.15,0,0,1,1.13-.3,1.64,1.64,0,0,1,.84.21,2.1,2.1,0,0,1,.57.48v-.59ZM8.74,20.48a1.35,1.35,0,0,0,.73-.2,1.38,1.38,0,0,0,.48-.56,1.87,1.87,0,0,0,0-1.56,1.42,1.42,0,0,0-.48-.55,1.35,1.35,0,0,0-.73-.2,1.27,1.27,0,0,0-.7.2,1.35,1.35,0,0,0-.49.54,1.9,1.9,0,0,0,0,1.57,1.41,1.41,0,0,0,.49.56A1.27,1.27,0,0,0,8.74,20.48Z"/><path class="cls-1" d="M14.84,17.88a1.81,1.81,0,0,0-.55-.4,1.3,1.3,0,0,0-.56-.16,1.49,1.49,0,0,0-.36.05.62.62,0,0,0-.3.16.44.44,0,0,0-.12.34.49.49,0,0,0,.28.44,4.46,4.46,0,0,0,.68.23,4.72,4.72,0,0,1,.69.24,1.33,1.33,0,0,1,.55.41,1.17,1.17,0,0,1,.22.76,1.18,1.18,0,0,1-.23.73,1.6,1.6,0,0,1-.62.46,1.91,1.91,0,0,1-.78.16,2.69,2.69,0,0,1-1-.18,1.87,1.87,0,0,1-.82-.61l.6-.51a2,2,0,0,0,.53.41,1.51,1.51,0,0,0,.73.16,1,1,0,0,0,.33-.06.75.75,0,0,0,.28-.18.47.47,0,0,0,.12-.34.42.42,0,0,0-.13-.33,1,1,0,0,0-.33-.19l-.46-.13a7,7,0,0,1-.73-.25,1.7,1.7,0,0,1-.59-.43,1.16,1.16,0,0,1-.24-.77,1.08,1.08,0,0,1,.23-.69,1.53,1.53,0,0,1,.6-.45,1.92,1.92,0,0,1,.79-.16,2.68,2.68,0,0,1,.88.17,1.79,1.79,0,0,1,.79.56Z"/><path class="cls-1" d="M20.69,18.94a2.42,2.42,0,0,1-.3,1.22,2.23,2.23,0,0,1-.83.84,2.43,2.43,0,0,1-2.34,0,2.16,2.16,0,0,1-.83-.84,2.33,2.33,0,0,1-.31-1.22,2.36,2.36,0,0,1,.31-1.22,2.2,2.2,0,0,1,.83-.83,2.43,2.43,0,0,1,2.34,0,2.28,2.28,0,0,1,.83.83A2.45,2.45,0,0,1,20.69,18.94Zm-.9,0a1.71,1.71,0,0,0-.18-.8,1.31,1.31,0,0,0-.5-.54,1.39,1.39,0,0,0-1.95.54,2,2,0,0,0,0,1.6,1.5,1.5,0,0,0,.51.55,1.36,1.36,0,0,0,1.94-.55A1.71,1.71,0,0,0,19.79,18.94Z"/><path class="cls-1" d="M24,16.61a2,2,0,0,1,1.08.3,2.08,2.08,0,0,1,.76.82,2.6,2.6,0,0,1,.27,1.21,2.67,2.67,0,0,1-.27,1.22,2.23,2.23,0,0,1-.75.83,2,2,0,0,1-1.06.3,1.82,1.82,0,0,1-.88-.21,2.06,2.06,0,0,1-.62-.47v2.5h-.89V16.68h.89v.66a1.82,1.82,0,0,1,.6-.51A1.71,1.71,0,0,1,24,16.61Zm-.12.82a1.26,1.26,0,0,0-.72.2,1.39,1.39,0,0,0-.49.53,1.78,1.78,0,0,0,0,1.56,1.45,1.45,0,0,0,.49.55,1.34,1.34,0,0,0,.72.2,1.28,1.28,0,0,0,.71-.2,1.45,1.45,0,0,0,.49-.55,1.78,1.78,0,0,0,0-1.56,1.39,1.39,0,0,0-.49-.53A1.21,1.21,0,0,0,23.9,17.43Z"/><path class="cls-1" d="M31.31,16.69v4.52h-.89v-.7a2.25,2.25,0,0,1-.62.54,1.8,1.8,0,0,1-.93.25,1.89,1.89,0,0,1-1-.3,2,2,0,0,1-.75-.84,2.67,2.67,0,0,1-.28-1.22,2.53,2.53,0,0,1,.29-1.22,2.08,2.08,0,0,1,.78-.83,2.21,2.21,0,0,1,1.14-.3,1.6,1.6,0,0,1,.83.21,2.15,2.15,0,0,1,.58.48v-.59Zm-2.24,3.79a1.35,1.35,0,0,0,.73-.2,1.46,1.46,0,0,0,.48-.56,1.87,1.87,0,0,0,0-1.56,1.51,1.51,0,0,0-.48-.55,1.35,1.35,0,0,0-.73-.2,1.33,1.33,0,0,0-.71.2,1.4,1.4,0,0,0-.48.54,1.9,1.9,0,0,0,0,1.57,1.46,1.46,0,0,0,.48.56A1.33,1.33,0,0,0,29.07,20.48Z"/><path class="cls-1" d="M32.55,21.21V14.83h.89v6.38Z"/><path class="cls-1" d="M37,16.61a1.46,1.46,0,0,1,.9.25,1.42,1.42,0,0,1,.48.7,1.93,1.93,0,0,1,.35-.44,2.12,2.12,0,0,1,.55-.37,1.63,1.63,0,0,1,.66-.14,1.48,1.48,0,0,1,.92.25,1.42,1.42,0,0,1,.46.68,3.23,3.23,0,0,1,.13,1v2.71h-.9V18.55a1.47,1.47,0,0,0-.19-.81.75.75,0,0,0-.71-.31,1.12,1.12,0,0,0-.82.31,1,1,0,0,0-.33.77v2.7h-.89V18.53a1.36,1.36,0,0,0-.21-.79.76.76,0,0,0-.68-.31,1.25,1.25,0,0,0-.59.14,1.07,1.07,0,0,0-.4.39,1,1,0,0,0-.15.53v2.72h-.9V16.69h.9v.72a2.08,2.08,0,0,1,.58-.56A1.53,1.53,0,0,1,37,16.61Z"/><path class="cls-1" d="M46.87,16.69v4.52H46v-.7a2.19,2.19,0,0,1-.61.54,1.83,1.83,0,0,1-.94.25,1.89,1.89,0,0,1-1-.3,2.19,2.19,0,0,1-.75-.84,2.67,2.67,0,0,1-.27-1.22,2.53,2.53,0,0,1,.28-1.22,2,2,0,0,1,.79-.83,2.15,2.15,0,0,1,1.13-.3,1.64,1.64,0,0,1,.84.21,2.1,2.1,0,0,1,.57.48v-.59Zm-2.25,3.79a1.35,1.35,0,0,0,.73-.2,1.31,1.31,0,0,0,.48-.56,1.87,1.87,0,0,0,0-1.56,1.29,1.29,0,0,0-1.21-.75,1.27,1.27,0,0,0-.7.2,1.35,1.35,0,0,0-.49.54,1.9,1.9,0,0,0,0,1.57,1.41,1.41,0,0,0,.49.56A1.27,1.27,0,0,0,44.62,20.48Z"/><path class="cls-1" d="M50.64,17.64a1,1,0,0,0-.21-.07,1.09,1.09,0,0,0-.26,0,1.21,1.21,0,0,0-.55.14,1.32,1.32,0,0,0-.44.41,1.05,1.05,0,0,0-.18.62v2.5h-.89V16.69H49v.85a1.66,1.66,0,0,1,.58-.68,1.35,1.35,0,0,1,.8-.27,1,1,0,0,1,.49.09Z"/><path class="cls-2" d="M14.11,6.25l-.5.22-.23.11c-.18.08-.35.17-.52.26l-.51.28h0a13.67,13.67,0,0,0-4.55,4h0c-.17.22-.32.44-.48.66L7,12.16l-.19.31L6.57,13h0a5.06,5.06,0,0,1,7.18-7.12l0,0a3.45,3.45,0,0,1,.26.28h0Z"/><path class="cls-3" d="M13.38,6.58c-.18.08-.35.17-.52.26l-.51.28h0a13.67,13.67,0,0,0-4.55,4h0c-.17.22-.32.44-.48.66L7,12.16a4.23,4.23,0,0,1,6.34-5.58Z"/><path class="cls-4" d="M23,5.1a17.38,17.38,0,0,0-2.4-.17,16.55,16.55,0,0,0-6.48,1.31h0a3.89,3.89,0,0,0-.34-.36l0,0A5.06,5.06,0,0,0,6.57,13h0A13.86,13.86,0,0,0,5.26,23.11,12.78,12.78,0,1,1,23,5.1Z"/></g></g></svg>